<svg xmlns="http://www.w3.org/2000/svg" xmlns:xlink="http://www.w3.org/1999/xlink" width="500" zoomAndPan="magnify" viewBox="0 0 375 374.999991" height="500" preserveAspectRatio="xMidYMid meet" version="1.0"><defs><g/></defs><rect x="-37.5" width="450" fill="#ffffff" y="-37.499999" height="449.999989" fill-opacity="1"/><rect x="-37.5" width="450" fill="#000000" y="-37.499999" height="449.999989" fill-opacity="1"/><g fill="#ffffff" fill-opacity="1"><g transform="translate(105.52116, 289.104832)"><g><path d="M 118.546875 -206.40625 C 131.128906 -204.53125 140.9375 -199.695312 147.96875 -191.90625 C 155.007812 -184.113281 159.046875 -174.628906 160.078125 -163.453125 C 161.117188 -152.285156 158.960938 -140.601562 153.609375 -128.40625 C 148.253906 -116.207031 139.382812 -104.660156 127 -93.765625 C 117.050781 -84.753906 106.863281 -78.273438 96.4375 -74.328125 C 86.019531 -70.390625 76.023438 -68.796875 66.453125 -69.546875 L 66.734375 -60.828125 C 66.546875 -53.128906 67.765625 -47.679688 70.390625 -44.484375 C 73.023438 -41.296875 77.628906 -42.050781 84.203125 -46.75 L 90.671875 -38.015625 L 43.921875 0 C 37.734375 -3.9375 32.476562 -9.988281 28.15625 -18.15625 C 23.84375 -26.320312 21.6875 -36.695312 21.6875 -49.28125 L 21.6875 -142.484375 C 21.5 -151.304688 19.570312 -156.9375 15.90625 -159.375 C 12.25 -161.820312 6.289062 -160.414062 -1.96875 -155.15625 L -6.765625 -163.890625 L 43.921875 -206.40625 C 51.617188 -200.769531 57.203125 -194.804688 60.671875 -188.515625 C 64.148438 -182.234375 65.984375 -173.554688 66.171875 -162.484375 Z M 117.140625 -110.671875 C 120.148438 -115.359375 120.992188 -121.269531 119.671875 -128.40625 C 118.359375 -135.539062 115.257812 -142.484375 110.375 -149.234375 C 105.5 -155.992188 99.023438 -161.160156 90.953125 -164.734375 L 66.453125 -145.015625 L 66.453125 -119.953125 C 72.460938 -116.390625 78.894531 -113.289062 85.75 -110.65625 C 92.601562 -108.03125 98.9375 -106.578125 104.75 -106.296875 C 110.570312 -106.015625 114.703125 -107.472656 117.140625 -110.671875 Z M 117.140625 -110.671875 "/></g></g></g></svg>